<?xml version="1.0" encoding="utf-8"?>
<!DOCTYPE svg PUBLIC "-//W3C//DTD SVG 1.1//EN" "http://www.w3.org/Graphics/SVG/1.1/DTD/svg11.dtd">
<svg style="width:308px;height:308px;" version="1.1" id="图形" xmlns="http://www.w3.org/2000/svg" xmlns:xlink="http://www.w3.org/1999/xlink" x="0px" y="0px" width="1024px" height="1024px" viewBox="0 0 1024 1024" enable-background="new 0 0 1024 1024" xml:space="preserve">
  <path class="svgpath" data-index="path_0" fill="#ffffff" d="M884.557646 461.325877c0-219.732493-178.172959-397.924895-397.96685-397.924895-219.792868 0-397.98527 178.193425-397.98527 397.924895 0 219.833801 178.193425 398.026202 397.98527 398.026202C706.384687 859.352079 884.557646 681.159678 884.557646 461.325877zM116.994086 461.325877c0-204.068745 165.507498-369.496425 369.596709-369.496425 204.068745 0 369.537358 165.42768 369.537358 369.496425 0 204.12912-165.467589 369.597733-369.537358 369.597733C282.501584 830.922586 116.994086 665.454998 116.994086 461.325877z" />
<path class="svgpath" data-index="path_1" fill="#ffffff" d="M612.606861 715.119117c3.931542-1.660826 6.5246-5.490038 6.5246-9.766434l0-20.729114c0-2.816139-1.11438-5.511527-3.080152-7.477298L400.291291 461.386252l215.761042-215.719086c1.965771-1.986237 3.080152-4.702092 3.080152-7.518231l0-20.748556c0-4.254907-2.593058-8.105608-6.5246-9.746992-3.950985-1.620917-8.469905-0.709151-11.509125 2.289136l-243.966431 243.967454c-2.068102 2.046612-3.080152 4.742001-3.080152 7.477298 0 2.715855 1.01205 5.41022 3.080152 7.457856l243.966431 244.00634C604.136955 715.848735 608.655875 716.761524 612.606861 715.119117z" />

</svg>
