<?xml version="1.0" encoding="utf-8"?>
<!DOCTYPE svg PUBLIC "-//W3C//DTD SVG 1.1//EN" "http://www.w3.org/Graphics/SVG/1.1/DTD/svg11.dtd">
<svg style="width:308px;height:308px;" version="1.1" id="图形" xmlns="http://www.w3.org/2000/svg" xmlns:xlink="http://www.w3.org/1999/xlink" x="0px" y="0px" width="1024px" height="1024px" viewBox="0 0 1024 1024" enable-background="new 0 0 1024 1024" xml:space="preserve">
  <path class="svgpath" data-index="path_0" fill="#ffffff" d="M743.428571 607.428571q0-28.571429-11.142857-52.285714t-27.714286-39.142857-41.714286-28-47.142857-19.428571-50-13.142857l-59.428571-13.714286q-17.142857-4-25.142857-6t-20-6.571429-17.142857-9.142857-9.428571-12-4.285714-17.142857q0-44 82.285714-44 24.571429 0 44 6.857143t30.857143 16.285714 21.714286 19.142857 22.857143 16.571429 27.428571 6.857143q26.857143 0 43.142857-18.285714t16.285714-44q0-31.428571-32-56.857143t-81.142857-38.571429-104-13.142857q-38.857143 0-75.428571 8.857143t-68.285714 26.857143-50.857143 49.714286-19.142857 73.428571q0 34.857143 10.857143 60.857143t32 43.142857 45.714286 27.714286 58.857143 18.571429l83.428571 20.571429q51.428571 12.571429 64 20.571429 18.285714 11.428571 18.285714 34.285714 0 22.285714-22.857143 36.857143t-60 14.571429q-29.142857 0-52.285714-9.142857t-37.142857-22-26-25.714286-26.285714-22-30.857143-9.142857q-28.571429 0-43.142857 17.142857t-14.571429 42.857143q0 52.571429 69.714286 90t166.285714 37.428571q41.714286 0 80-10.571429t70-30.571429 50.571429-53.428571 18.857143-75.142857zm207.428571 124q0 90.857143-64.285714 155.142857t-155.142857 64.285714q-74.285714 0-133.714286-45.714286-44 9.142857-85.714286 9.142857-81.714286 0-156.285714-31.714286t-128.571429-85.714286-85.714286-128.571429-31.714286-156.285714q0-41.714286 9.142857-85.714286-45.714286-59.428571-45.714286-133.714286 0-90.857143 64.285714-155.142857t155.142857-64.285714q74.285714 0 133.714286 45.714286 44-9.142857 85.714286-9.142857 81.714286 0 156.285714 31.714286t128.571429 85.714286 85.714286 128.571429 31.714286 156.285714q0 41.714286-9.142857 85.714286 45.714286 59.428571 45.714286 133.714286z" />

</svg>
