<?xml version="1.0" encoding="utf-8"?>
<!DOCTYPE svg PUBLIC "-//W3C//DTD SVG 1.1//EN" "http://www.w3.org/Graphics/SVG/1.1/DTD/svg11.dtd">
<svg style="width:308px;height:308px;" version="1.1" id="图形" xmlns="http://www.w3.org/2000/svg" xmlns:xlink="http://www.w3.org/1999/xlink" x="0px" y="0px" width="1024px" height="1024px" viewBox="0 0 1024 1024" enable-background="new 0 0 1024 1024" xml:space="preserve">
  <path class="svgpath" data-index="path_0" fill="#ffffff" d="M947.708941 239.47207c-14.876826 8.192589-59.507302 24.579815-101.119025 28.621874 26.680663-14.338566 66.191538-61.502749 75.974345-98.909707-25.684986 16.386202-84.599793 40.265052-113.705692 40.265052 0 0 0 0.054235 0.054235 0.107447-33.20424-34.712593-79.882352-56.326866-131.736347-56.326866-100.580766 0-182.188412 81.553411-182.188412 182.134177 0 14.014178 1.671059 27.597545 4.688789 40.642652l-0.053212 0c-136.480394-3.5038-296.030204-71.90568-385.937886-188.980095-55.19509 95.568612-7.438413 201.916732 55.249325 240.618173-21.37175 1.671059-60.963467-2.372024-79.56001-20.48352-1.293459 63.441914 29.269627 147.529031 140.522454 177.929412-21.452591 11.588943-59.292408 8.30106-75.840292 5.767354 5.820566 53.68776 80.852446 123.759675 162.837692 123.759675-29.214369 33.743522-128.933511 95.137801-252.314563 75.571163 83.817987 51.045583 181.541683 80.583317 284.97952 80.583317 293.926286 0 522.202363-238.248196 509.912455-532.120246 0-0.323365-0.107447-0.64673-0.107447-0.970094 0-0.754177 0.107447-1.616824 0.107447-2.317789 0-0.916882-0.107447-1.725294-0.107447-2.749624C886.098745 314.449715 921.998373 282.054911 947.708941 239.47207z" />

</svg>
